# xmcd CD database file
#
# Track frame offsets:
#	150
#	14768
#	27952
#	38262
#	50241
#	60492
#	70187
#	80461
#	92442
#	105402
#	115767
#	127434
#	140177
#	151331
#	160095
#	173410
#	184511
#	196700
#	208287
#	219079
#	231250
#	243668
#	256677
#	267851
#	281589
#	294099
#	307157
#	317725
#
# Disc length: 4390 seconds
#
# Revision: 6
# Processed by: cddbd v1.5.2PL0 Copyright (c) Steve Scherf et al.
# Submitted via: CDex 1.70beta2
#
DISCID=8911241c
DTITLE=Bob Wills - Take Me Back To Tulsa  -  Disc 4
DYEAR=2002
DGENRE=Country
TTITLE0=I'm A Ding Dong Daddy
TTITLE1=Milk Cow Blues
TTITLE2=My Gal Sal
TTITLE3=Red River Valley
TTITLE4=Sugar Moon
TTITLE5=Sweet Jennie Lee
TTITLE6=The Girl I Left Behind
TTITLE7=At The Woodchopper's Ball
TTITLE8=Blues For Dixie
TTITLE9=Bubbles In My Beer
TTITLE10=Can't Get Enough Of Texas
TTITLE11=Cotton Patch Blues
TTITLE12=Cowboy Stomp
TTITLE13=Crazy Rhythm
TTITLE14=Deep Water
TTITLE15=Don't Be Ashamed Of Your Age
TTITLE16=Keeper Of My Heart
TTITLE17=Little Cowboy Lament
TTITLE18=Thorn In My Heart
TTITLE19=Ida Red Likes To Boogie
TTITLE20=Boot Heel Drag
TTITLE21=Faded Love
TTITLE22=I Laugh When I Think How I Cried Over You
TTITLE23=I'll Be Lucky Someday
TTITLE24=I Didn't Realize
TTITLE25=Rock-A-Bye Baby Blues
TTITLE26=Jolie Blon Likes The Boogie
TTITLE27=The End Of The Line
EXTD=YEAR: 2002
EXTT0=
EXTT1=
EXTT2=
EXTT3=
EXTT4=
EXTT5=
EXTT6=
EXTT7=
EXTT8=
EXTT9=
EXTT10=
EXTT11=
EXTT12=
EXTT13=
EXTT14=
EXTT15=
EXTT16=
EXTT17=
EXTT18=
EXTT19=
EXTT20=
EXTT21=
EXTT22=
EXTT23=
EXTT24=
EXTT25=
EXTT26=
EXTT27=
PLAYORDER=
